<?xml version="1.0" standalone="no"?>
<!DOCTYPE svg PUBLIC "-//W3C//DTD SVG 20010904//EN"
 "http://www.w3.org/TR/2001/REC-SVG-20010904/DTD/svg10.dtd">
<svg version="1.0" xmlns="http://www.w3.org/2000/svg"
 width="700.000000pt" height="700.000000pt" viewBox="0 0 700.000000 700.000000"
 preserveAspectRatio="xMidYMid meet">
<metadata>
Created by potrace 1.14, written by Peter Selinger 2001-2017
</metadata>
<g transform="translate(0.000000,700.000000) scale(0.100000,-0.100000)"
fill="#000000" stroke="none">
<path d="M2648 6455 c-2 -1 -79 -5 -173 -9 -93 -3 -181 -8 -195 -10 -14 -3
-47 -7 -75 -10 -27 -4 -61 -8 -75 -11 -14 -2 -41 -6 -60 -9 -86 -12 -286 -68
-363 -100 -201 -86 -309 -157 -437 -286 -217 -217 -387 -535 -499 -937 -49
-172 -96 -402 -117 -566 -3 -23 -7 -53 -10 -67 -2 -14 -7 -56 -10 -95 -3 -38
-7 -81 -10 -95 -23 -136 -23 -700 1 -895 2 -16 7 -55 10 -85 7 -64 8 -73 30
-200 8 -52 25 -135 35 -185 11 -49 23 -101 26 -115 8 -40 84 -293 94 -315 5
-11 16 -40 24 -65 13 -40 23 -66 55 -145 5 -11 42 -91 84 -177 117 -241 249
-451 410 -653 92 -114 299 -323 402 -406 401 -322 839 -473 1350 -464 212 4
256 8 429 45 170 35 250 58 366 105 86 34 255 116 305 148 232 146 388 278
565 477 36 40 70 78 76 84 66 70 457 629 487 696 4 8 15 27 25 42 9 15 50 80
91 145 40 65 117 188 171 273 276 439 357 577 479 820 99 197 189 433 215 564
3 11 10 46 16 76 33 160 30 403 -5 530 -1 3 -5 19 -9 35 -57 232 -230 543
-421 755 -141 157 -234 240 -480 428 -5 4 -53 34 -105 66 -52 33 -107 67 -122
77 -41 29 -326 165 -403 194 -183 68 -361 123 -500 154 -27 6 -59 13 -70 16
-21 5 -101 22 -145 30 -64 13 -334 55 -415 65 -95 11 -123 14 -245 25 -41 4
-82 9 -91 10 -9 2 -59 6 -110 10 -52 4 -114 9 -139 11 -25 2 -130 6 -235 9
-104 3 -198 8 -207 9 -9 2 -18 3 -20 1z"/>
</g>
</svg>
