<?xml version="1.0" encoding="UTF-8"?>
<svg width="240px" height="237px" viewBox="0 0 240 237" version="1.1" xmlns="http://www.w3.org/2000/svg" xmlns:xlink="http://www.w3.org/1999/xlink">
    <title>blob (3)</title>
    <defs>
        <linearGradient x1="0%" y1="99.8949631%" x2="100%" y2="0.105036883%" id="linearGradient-1">
            <stop stop-color="#1AE4EF" offset="0%"></stop>
            <stop stop-color="#D0DFF3" offset="100%"></stop>
        </linearGradient>
    </defs>
    <g id="Page-1" stroke="none" stroke-width="1" fill="none" fill-rule="evenodd">
        <g id="banner" transform="translate(-944.000000, -698.000000)" fill="url(#linearGradient-1)" fill-rule="nonzero">
            <g id="blob-(3)" transform="translate(944.000000, 698.000000)">
                <path d="M192.848357,22.0606526 C217.12157,35.663023 238.13862,59.3193194 239.914709,83.8627269 C241.394783,108.406134 223.337881,134.42806 207.057067,159.562875 C190.776253,184.993394 175.975514,209.832505 152.590345,223.730579 C129.501191,237.924357 97.5315938,241.177098 71.1862772,230.827468 C45.1369754,220.477838 24.7119547,196.230135 12.871363,169.912505 C1.32678609,143.594875 -1.92937663,115.20732 1.0307713,86.2283565 C3.99091923,56.9536898 13.1673778,27.0876156 33.0003689,12.5981341 C53.1293748,-1.89134747 84.2109281,-1.00423635 113.220378,1.36139328 C142.229827,4.02272662 168.871159,8.16257849 192.848357,22.0606526 Z" id="Path"></path>
            </g>
        </g>
    </g>
</svg>